<svg width="17" height="17" viewBox="0 0 17 17" fill="none" xmlns="http://www.w3.org/2000/svg">
<g clip-path="url(#clip0_1_4829)">
<path d="M15.8257 2.48284C15.7933 2.33541 15.732 2.19588 15.6453 2.0723C15.5586 1.94872 15.4483 1.84354 15.3207 1.76284C15.1935 1.6812 15.0514 1.6256 14.9026 1.59925C14.7538 1.5729 14.6012 1.57633 14.4537 1.60934L10.6962 2.44434L5.69624 1.44434L1.45324 2.38784C1.19732 2.44351 0.968294 2.58538 0.804465 2.78971C0.640636 2.99405 0.551947 3.24844 0.553237 3.51034V14.4853C0.552432 14.679 0.600883 14.8696 0.694033 15.0394C0.787184 15.2092 0.921975 15.3525 1.08574 15.4558C1.21291 15.5373 1.35494 15.5928 1.50365 15.6192C1.65236 15.6455 1.80482 15.6422 1.95224 15.6093L5.70974 14.7743L10.7097 15.7743L14.9517 14.8313C15.2079 14.7759 15.4372 14.6342 15.6012 14.4298C15.7653 14.2254 15.8541 13.9709 15.8527 13.7088V2.73284C15.8527 2.64875 15.8435 2.56491 15.8252 2.48284H15.8257ZM6.45324 13.5968L5.69624 13.4453L4.95724 13.6093H4.95324V2.94184L5.71024 2.77384L6.45324 2.92234V13.5968ZM11.4532 14.2768L10.6957 14.4453L9.95324 14.2968V3.62184L10.7102 3.77384L11.4497 3.60934H11.4532V14.2768Z" fill="white"/>
</g>
<defs>
<clipPath id="clip0_1_4829">
<rect width="16" height="16" fill="white" transform="translate(0.203125 0.609375)"/>
</clipPath>
</defs>
</svg>
