<svg width="13" height="13" viewBox="0 0 13 13" fill="none" xmlns="http://www.w3.org/2000/svg">
<g clip-path="url(#clip0_1_4548)">
<path fill-rule="evenodd" clip-rule="evenodd" d="M6.33193 0.982701L4.78543 4.31458L1.08793 4.79083C1.01667 4.79989 0.949503 4.82924 0.894433 4.87537C0.839364 4.92151 0.798705 4.98249 0.777295 5.05107C0.755884 5.11965 0.754623 5.19293 0.773661 5.2622C0.792698 5.33148 0.831234 5.39382 0.884684 5.44183L3.61956 7.9037L2.88268 11.5982C2.8685 11.669 2.87506 11.7424 2.90158 11.8096C2.9281 11.8767 2.97345 11.9348 3.03218 11.9768C3.09091 12.0189 3.16053 12.043 3.23266 12.0464C3.30479 12.0498 3.37637 12.0324 3.43881 11.9961L6.67168 10.1222L9.90606 11.9961C9.96846 12.0322 10.0399 12.0496 10.112 12.0461C10.184 12.0427 10.2535 12.0185 10.3121 11.9766C10.3708 11.9346 10.4161 11.8767 10.4426 11.8096C10.4692 11.7426 10.4758 11.6693 10.4618 11.5986L9.72493 7.9037L12.4598 5.44183C12.5131 5.39383 12.5516 5.33154 12.5706 5.26235C12.5895 5.19316 12.5883 5.11998 12.5669 5.05148C12.5456 4.98299 12.505 4.92206 12.4501 4.87593C12.3951 4.82979 12.3281 4.80039 12.2569 4.7912L8.55943 4.31458L7.01181 0.982701C6.9817 0.917862 6.93369 0.862978 6.87343 0.824519C6.81317 0.786059 6.74317 0.765625 6.67168 0.765625C6.6002 0.765625 6.5302 0.786059 6.46994 0.824519C6.40968 0.862978 6.36204 0.917862 6.33193 0.982701Z" fill="#222222"/>
</g>
<defs>
<clipPath id="clip0_1_4548">
<rect width="12" height="12" fill="white" transform="translate(0.671875 0.390625)"/>
</clipPath>
</defs>
</svg>
